<svg xmlns="http://www.w3.org/2000/svg" xml:space="preserve" viewBox="0 0 512 512"><path d="M0 92.44v327.11C0 470.61 41.39 512 92.44 512h327.11c51.05 0 92.44-41.39 92.44-92.44V92.44C512 41.39 470.61 0 419.56 0H92.44C41.39 0 0 41.39 0 92.44M355.56 256c23.56 0 42.67 19.1 42.67 42.67v14.22c0 56.08-52.89 113.78-142.22 113.78s-142.22-57.7-142.22-113.78v-14.22c0-23.56 19.1-42.67 42.67-42.67zM256 71.11c43.2 0 78.22 35.02 78.22 78.22S299.2 227.55 256 227.55s-78.22-35.02-78.22-78.22S212.8 71.11 256 71.11" style="fill:#d2d2d2"/></svg>